<?xml version="1.0" encoding="UTF-8"?>
<svg id="Calque_1" data-name="Calque 1" xmlns="http://www.w3.org/2000/svg" viewBox="0 0 283.46 283.46">
  <defs>
    <style>
      .cls-1 {
        fill: #fff;
      }

      .cls-2 {
        fill: #f57c00;
      }

      .cls-3 {
        fill: #ee1b22;
      }

      .cls-4 {
        font-family: Arial-BoldMT, Arial;
        font-size: 16.21px;
        font-weight: 700;
      }

      .cls-4, .cls-5 {
        fill: #009a5e;
      }

      .cls-6 {
        fill: #f1d744;
      }

      .cls-7 {
        fill: none;
      }
    </style>
  </defs>
  <text class="cls-4" transform="translate(77.31 32.91) rotate(-27.99)"><tspan x="0" y="0">C</tspan></text>
  <text class="cls-4" transform="translate(87.45 27.55) rotate(-23.17)"><tspan x="0" y="0">h</tspan></text>
  <text class="cls-4" transform="translate(96.38 23.74) rotate(-18.93)"><tspan x="0" y="0">a</tspan></text>
  <text class="cls-4" transform="translate(104.64 20.76) rotate(-13.71)"><tspan x="0" y="0">m</tspan></text>
  <text class="cls-4" transform="translate(118.4 17.5) rotate(-8.35)"><tspan x="0" y="0">b</tspan></text>
  <text class="cls-4" transform="translate(128.04 16.14) rotate(-4.81)"><tspan x="0" y="0">r</tspan></text>
  <text class="cls-4" transform="translate(134.17 15.58) rotate(-1.45)"><tspan x="0" y="0">e</tspan></text>
  <text class="cls-4" transform="translate(143.03 15.41) rotate(1.54)"><tspan x="0" y="0"> </tspan></text>
  <text class="cls-4" transform="translate(147.44 15.52) rotate(3.54)"><tspan x="0" y="0">I</tspan></text>
  <text class="cls-4" transform="translate(151.81 15.73) rotate(6.56)"><tspan x="0" y="0">v</tspan></text>
  <text class="cls-4" transform="translate(160.57 16.71) rotate(10.79)"><tspan x="0" y="0">o</tspan></text>
  <text class="cls-4" transform="translate(170.13 18.61) rotate(14.01)"><tspan x="0" y="0">i</tspan></text>
  <text class="cls-4" transform="translate(174.38 19.65) rotate(16.42)"><tspan x="0" y="0">r</tspan></text>
  <text class="cls-4" transform="translate(180.33 21.42) rotate(18.84)"><tspan x="0" y="0">i</tspan></text>
  <text class="cls-4" transform="translate(184.47 22.77) rotate(21.85)"><tspan x="0" y="0">e</tspan></text>
  <text class="cls-4" transform="translate(192.66 26.02) rotate(26.05)"><tspan x="0" y="0">n</tspan></text>
  <text class="cls-4" transform="translate(201.37 30.28) rotate(30.44)"><tspan x="0" y="0">n</tspan></text>
  <text class="cls-4" transform="translate(209.72 35.19) rotate(34.62)"><tspan x="0" y="0">e</tspan></text>
  <text class="cls-4" transform="translate(217.01 40.29) rotate(37.61)"><tspan x="0" y="0"> </tspan></text>
  <text class="cls-4" transform="translate(220.51 42.89) rotate(40.79)"><tspan x="0" y="0">d</tspan></text>
  <text class="cls-4" transform="translate(227.83 49.22) rotate(44.95)"><tspan x="0" y="0">e</tspan></text>
  <text class="cls-4" transform="translate(234.09 55.54) rotate(47.95)"><tspan x="0" y="0"> </tspan></text>
  <text class="cls-4" transform="translate(237.06 58.69) rotate(51.34)"><tspan x="0" y="0">P</tspan></text>
  <text class="cls-4" transform="translate(243.65 67.04) rotate(55.14)"><tspan x="0" y="0">r</tspan></text>
  <text class="cls-4" transform="translate(247.2 72.03) rotate(58.74)"><tspan x="0" y="0">o</tspan></text>
  <text class="cls-4" transform="translate(252.32 80.22) rotate(64.18)"><tspan x="0" y="0">m</tspan></text>
  <text class="cls-4" transform="translate(258.4 93) rotate(69.62)"><tspan x="0" y="0">o</tspan></text>
  <text class="cls-4" transform="translate(261.73 102.15) rotate(73.03)"><tspan x="0" y="0">t</tspan></text>
  <text class="cls-4" transform="translate(263.27 107.23) rotate(75.24)"><tspan x="0" y="0">i</tspan></text>
  <text class="cls-4" transform="translate(264.46 111.41) rotate(78.44)"><tspan x="0" y="0">o</tspan></text>
  <text class="cls-4" transform="translate(266.4 120.9) rotate(82.78)"><tspan x="0" y="0">n</tspan></text>
  <text class="cls-4" transform="translate(267.56 130.61) rotate(85.94)"><tspan x="0" y="0"> </tspan></text>
  <text class="cls-4" transform="translate(267.97 134.93) rotate(89.3)"><tspan x="0" y="0">E</tspan></text>
  <text class="cls-4" transform="translate(268.07 145.53) rotate(93.7)"><tspan x="0" y="0">c</tspan></text>
  <text class="cls-4" transform="translate(267.53 154.32) rotate(97.92)"><tspan x="0" y="0">o</tspan></text>
  <text class="cls-4" transform="translate(266.2 163.92) rotate(102.34)"><tspan x="0" y="0">n</tspan></text>
  <text class="cls-4" transform="translate(264.13 173.4) rotate(106.77)"><tspan x="0" y="0">o</tspan></text>
  <text class="cls-4" transform="translate(261.47 182.67) rotate(112.19)"><tspan x="0" y="0">m</tspan></text>
  <text class="cls-4" transform="translate(255.93 195.77) rotate(116.4)"><tspan x="0" y="0">i</tspan></text>
  <text class="cls-4" transform="translate(254.07 199.69) rotate(119.58)"><tspan x="0" y="0">q</tspan></text>
  <text class="cls-4" transform="translate(249.29 208.13) rotate(123.96)"><tspan x="0" y="0">u</tspan></text>
  <text class="cls-4" transform="translate(243.86 216.18) rotate(128.14)"><tspan x="0" y="0">e</tspan></text>
  <text class="cls-4" transform="translate(238.33 223.13) rotate(131.13)"><tspan x="0" y="0"> </tspan></text>
  <text class="cls-4" transform="translate(235.51 226.45) rotate(134.11)"><tspan x="0" y="0">a</tspan></text>
  <text class="cls-4" transform="translate(229.4 232.79) rotate(138.29)"><tspan x="0" y="0">u</tspan></text>
  <text class="cls-4" transform="translate(222.07 239.23) rotate(141.48)"><tspan x="0" y="0"> </tspan></text>
  <text class="cls-4" transform="translate(218.75 242.02) rotate(145.08)"><tspan x="0" y="0">C</tspan></text>
  <text class="cls-4" transform="translate(209.31 248.56) rotate(149.7)"><tspan x="0" y="0">a</tspan></text>
  <text class="cls-4" transform="translate(201.7 253.04) rotate(153.92)"><tspan x="0" y="0">n</tspan></text>
  <text class="cls-4" transform="translate(192.98 257.3) rotate(158.16)"><tspan x="0" y="0">a</tspan></text>
  <text class="cls-4" transform="translate(184.82 260.59) rotate(162.38)"><tspan x="0" y="0">d</tspan></text>
  <text class="cls-4" transform="translate(175.58 263.52) rotate(166.59)"><tspan x="0" y="0">a</tspan></text>
  <g>
    <g>
      <path class="cls-2" d="m203.98,233.53v.47c-1.47.78-2.7,1.9-4.09,2.8-4.95,3.21-10.02,6.21-15.42,8.64-2.4,1.08-4.82,2.12-7.29,3.03-2.38.87-4.79,1.68-7.21,2.43-2.1.65-4.22,1.19-6.34,1.74-1.66.43-3.37.68-5.03,1.08-2.4.57-4.84.89-7.25,1.16-2.7.31-5.43.8-8.19.6-.37-.03-.76.12-1.13.18h-9.78c-.26-.22-.59-.18-.89-.19-1.2-.03-2.44.13-3.6-.09-3.06-.57-6.17-.71-9.23-1.27-2.59-.47-5.18-.99-7.73-1.58-2.56-.6-5.1-1.37-7.62-2.18-3.17-1.01-6.31-2.1-9.35-3.42-4.91-2.14-9.7-4.54-14.29-7.33-6.45-3.9-12.4-8.45-17.96-13.5-4.55-4.14-8.64-8.71-12.45-13.55-3.79-4.82-7.12-9.94-10.07-15.31-2.46-4.47-4.59-9.1-6.37-13.89-1.13-3.02-2.24-6.06-3.07-9.16-1.23-4.56-2.34-9.15-2.92-13.86-.36-2.91-.85-5.8-.89-8.75-.02-1.25.09-2.54-.44-3.74v-8.15c.37-.29.21-.71.26-1.08.35-2.34.13-4.71.42-7.06.46-3.68.93-7.36,1.71-10.97,1.18-5.48,2.69-10.88,4.69-16.13,3.49-9.13,7.94-17.75,13.69-25.69.62-.85,1.17-.91,1.89-.68,2.52.81,5.1,1.37,7.63,2.16,1.75.55,3.54,1.06,5.32,1.57,2.47.7,4.82,1.84,7.27,2.64,3.02,1,5.97,2.21,8.86,3.5,5.29,2.35,10.47,4.93,15.58,7.66,6.47,3.45,12.67,7.33,18.69,11.45,5.73,3.93,11.23,8.19,16.59,12.64,5.11,4.25,10,8.73,14.87,13.24.44.41.43.65-.02,1.1-.7.69-1.48,1.24-2.33,1.69-2.3,1.19-4.77,1.86-7.29,2.42-2.66.59-5.33,1.01-8.02,1.4-1.49.22-3,.2-4.45.54-2,.47-4.05.52-6.07.68-2.5.21-5,.5-7.5.69-1.83.14-3.69.24-5.52.52-1.82.28-3.66.49-5.48.74-.32.04-.84-.16-.88.29-.04.41.42.54.82.66,1.63.53,3.35.39,5.01.7,2.83.52,5.71.14,8.57.43,4.52.46,9.09.38,13.61,1.11,2.48.4,4.96.79,7.4,1.4,2.51.62,4.88,1.52,7.07,2.87,4.18,2.58,5.68,5.98,5.16,10.41-.41,3.5-1.88,6.64-3.71,9.61-.83,1.35-1.67,2.7-2.61,4.21.52-.06.85-.02,1.11-.14,2.45-1.05,4.93-2,7.49-2.79,2.73-.84,5.47-1.39,8.3-1.44,2.22-.04,4.4.18,6.37,1.44,3.19,2.05,4.68,5.2,5.67,8.65.74,2.58,1.16,5.23,1.47,7.91.46,3.88.73,7.77.87,11.67.13,3.76.17,7.52.22,11.28,0,.74.31,1.25,1.01.96,1.27-.53,2.61-.18,3.9-.48.68-.16.92-.43.94-1.06.03-.85.07-1.7.12-2.55.27-4.52.54-9.05.82-13.57.14-2.28.31-4.56.47-6.84.02-.22-.03-.5.31-.51.85-.04,1.58-.55,2.48-.48,1.51.1,3.03.11,4.54,0,1.15-.08,1.74.29,2.09,1.4.35,1.13.92,2.19,1.41,3.27,3.24,7.2,6.14,14.55,9.15,21.85,2.84,6.87,5.64,13.75,8.67,20.54Zm-100.81-7.74c0,3.8.03,7.61-.02,11.41-.01,1.11.37,1.48,1.5,1.47,5.01-.05,10.01-.02,15.02-.02,3.07,0,3.03,0,3.06-3.05,0-1.06-.32-1.42-1.4-1.41-3.92.05-7.84,0-11.76.03-.85,0-1.18-.22-1.15-1.11.06-1.55.06-3.11,0-4.66-.04-.9.32-1.1,1.14-1.09,3.03.04,6.05.02,9.08.03,3.29.01,2.62.15,2.67-2.64.03-1.92,0-1.92-1.93-1.91-3.38,0-6.75,0-10.13.04-.61,0-.84-.19-.83-.79.02-1.28.04-2.56-.01-3.84-.03-.8.21-1.06,1.04-1.05,3.38.05,6.75.04,10.13.01,3.03-.02,2.64.46,2.66-2.63.01-1.53,0-1.55-1.53-1.55-5.36-.01-10.71.02-16.07-.04-1.17-.01-1.48.45-1.47,1.5.02,3.76,0,7.53,0,11.29Zm-27.77-25.59h0c0,1.94,0,3.88,0,5.82,0,1.98.04,3.96,0,5.93-.02.8.22,1.14,1.04,1.09.77-.05,1.55,0,2.33,0,1.83,0,1.82,0,1.81-1.83-.01-2.25-.02-4.5,0-6.75,0-.46-.09-1.23.66-1.09,2.25.4,4.46-.15,6.69-.08,1.01.03,1.94-.25,2.77-.62,3.68-1.6,5.49-6.91,3.85-10.61-1.39-3.14-3.87-4.52-7.13-4.6-3.61-.1-7.22,0-10.82-.05-1.01-.02-1.23.35-1.22,1.28.04,3.84.02,7.68.02,11.52Zm-32.41-70.1c-.2,1.7.18,3.97,1.14,5.96,1.6,3.29,4.14,5.52,7.98,6.29,2.49.5,4.72.27,7.02-.54,3.24-1.14,4.9-3.61,5.9-6.71.25-.78-.09-1.13-.78-1.2-.85-.08-1.6-.48-2.38-.74-1.24-.42-1.57-.33-1.99.87-.97,2.81-2.72,3.97-5.6,4.05-3.1.09-5.26-2.76-5.67-5.11-.43-2.47-.45-4.87-.02-7.36.51-2.94,3.41-5.58,6.35-5.22,2.08.25,3.99,1.08,4.77,3.23.44,1.21,1.25,1.04,2.01.82.63-.19,1.26-.29,1.88-.44.72-.17,1.54-.35,1.31-1.47-.44-2.2-3.75-5.34-5.98-5.94-1.84-.5-3.67-.45-5.51-.42-2.45.05-4.56,1.01-6.37,2.61-3.23,2.86-4.13,6.62-4.1,11.31Zm95.52,103.55c-.15,1.02.23,2.45.48,3.9.08.48.32.86.48,1.29,2.39,6.44,8.36,8.46,13.95,7.14,3.65-.87,6.04-3.45,7.15-7.12.22-.71.01-.88-.61-1.16-.71-.31-1.48-.36-2.17-.69-1.37-.65-1.8-.49-2.36.85-.04.11-.07.22-.11.33-.78,2.12-2.32,3.45-4.51,3.68-2.33.25-4.47-.5-5.62-2.7-1.96-3.75-1.89-7.76-.44-11.56,1.14-3.01,4.38-4.16,7.66-3.02,1.49.51,2.38,1.52,2.98,2.9.23.53.46,1.19,1.23.86,1.06-.45,2.21-.56,3.3-.89.48-.14.61-.42.55-.86-.14-1.1-.68-2.03-1.33-2.88-1.67-2.18-3.83-3.39-6.62-3.77-4.23-.58-7.86.34-10.77,3.52-2.51,2.74-3.22,6.14-3.23,10.21Zm-73.73-69.46h0c0,3.8-.01,7.61,0,11.41,0,1.56.03,1.56,1.54,1.57.74,0,1.48-.07,2.21.02,1.23.15,1.53-.43,1.52-1.53-.03-3.8,0-7.61,0-11.41,0-3.73-.02-7.45.04-11.18.02-1.13-.26-1.67-1.49-1.53-.84.09-1.71.07-2.56,0-.97-.08-1.28.28-1.27,1.25.04,3.8.02,7.6.02,11.41Z"/>
      <path class="cls-2" d="m80.59,195.42c0-.89.03-1.78,0-2.67-.03-.66.28-.91.89-.9,1.93.02,3.87-.07,5.79.23,1.18.19,2.28,1.41,2.38,2.61.19,2.42-.43,3.21-1.91,3.88-2.11.96-4.41.39-6.62.49-.5.02-.52-.36-.52-.72,0-.97,0-1.94,0-2.9Z"/>
    </g>
    <g>
      <path class="cls-5" d="m250.68,98.74c-3.21.08-6.43.2-9.64.24-18.18.23-36.36.42-54.54.67-1.56.02-1.72-1.18-2.04-2.04-1.43-3.81-2.03-7.81-2.34-11.86-.31-4.02-.46-8.05-.51-12.08-.02-1.71-.4-3.41-1-5.03-.1-.26-.28-.5-.46-.72-.2-.24-.36-.63-.76-.5-.3.09-.37.44-.42.71-.28,1.57-.51,3.15-.81,4.71-.68,3.61-.85,7.31-1.85,11.04-.77-1.17-1.55-2.2-2.17-3.33-1.86-3.42-4.24-6.49-6.61-9.56-2.14-2.77-4.53-5.33-7.06-7.74-2.91-2.77-6.03-5.31-9.37-7.59-3.03-2.06-6.17-4.02-9.5-5.41-3.58-1.5-7.17-3.1-11.03-3.97-7.55-1.7-15.15-2.85-22.91-2.58-4.56.16-9.1.57-13.62,1.31-2.09.34-4.17.9-6.33.89-.95,0-1.9.44-2.85.69v-.49c.89-.21,1.61-.69,2.36-1.23,1.38-1,2.81-2.02,4.36-2.7,3.39-1.47,6.45-3.56,9.95-4.82,3.28-1.18,6.37-2.84,9.76-3.78,3.8-1.05,7.53-2.41,11.4-3.2,2.75-.56,5.55-.93,8.34-1.31,2.6-.35,5.19-.78,7.83-.82,1.38-.02,2.8-.04,4.16-.45h6.68c1.51.51,3.09.39,4.63.45,4.61.19,9.1,1.17,13.66,1.67,2.31.25,4.53.98,6.77,1.6,2.86.8,5.71,1.63,8.53,2.54,2.66.86,5.16,2.17,7.78,3.12,3.56,1.28,6.71,3.35,10.12,4.9,2.43,1.1,4.53,2.84,6.83,4.22,2.4,1.44,4.66,3.12,6.83,4.89,2.45,1.99,5.03,3.83,7.21,6.15.77.82,1.92,1.28,2.58,2.21,1.47,2.07,3.52,3.58,5.17,5.5,1.67,1.94,3.35,3.89,4.95,5.89,2.37,2.96,4.48,6.13,6.55,9.32,2.44,3.74,4.36,7.74,6.46,11.65,1.13,2.12,1.7,4.48,2.88,6.57v.25Z"/>
      <path class="cls-5" d="m218.51,225.52c-1.13-3.82-1.88-7.74-3.15-11.53-.77-2.32-1.69-4.63-2.16-7.02-.87-4.5-2.66-8.73-3.67-13.17-.66-2.91-1.58-5.72-2.41-8.57-.3-1.04-.1-1.3,1-1.32,5.11-.1,10.22-.2,15.32-.47,3.79-.2,7.58-.11,11.37-.17,4.57-.08,9.15-.19,13.72-.28.44,0,.89-.15,1.32.08-1.09,3.55-2.91,6.75-4.59,10.01-1.23,2.4-2.83,4.59-4.07,6.95-1.33,2.53-3.09,4.73-4.74,6.97-2.19,2.98-4.36,6.07-7.23,8.52-.43.37-.61.94-1.01,1.37-2.68,2.8-5.46,5.49-8.42,7.99-.21.18-.36.43-.54.65h-.74Z"/>
      <path class="cls-3" d="m126.81,55.79c-.36,2.08-.75,3.79-.93,5.52-.18,1.67-.78,3.24-.91,4.91-.03.4-.28.99.41,1.1.47.08.79-.07,1.2-.52,1.23-1.36,2.49-2.69,3.63-4.13.34-.43.6-.14.76.13.56.99.7,2.27,2.29,2.36,1.2.07,2.24-.38,3.35-.64.46-.11,1-.67,1.34-.26.34.4.16,1.08-.02,1.64-.34,1.05-.66,2.11-.96,3.17-.29,1.05-.08,1.91.95,2.5.57.33.88.7.23,1.38-.54.57-1.24.91-1.76,1.41-2.16,2.08-4.75,3.67-6.73,5.95-.67.77-1.06,1.47-.22,2.33.03.03.02.08.04.12.26.58.91,1.24.53,1.75-.36.47-1.15-.05-1.75-.15-2.26-.36-4.47-.91-6.68-1.47-1.08-.27-1.78.24-1.82,1.42-.06,1.52-.05,3.05.13,4.56.16,1.36.07,2.71.17,4.06.08,1.06-.63.81-1.2.85-.63.05-1.11.05-1.06-.86.15-2.63.24-5.26.31-7.89.05-2,.02-1.99-1.94-1.89-2.47.12-4.82.87-7.24,1.3-.31.06-.64.33-.92.06-.33-.32-.08-.69.05-1.02.96-2.41,1.01-2.47-.94-4.19-2.52-2.22-5.13-4.33-7.71-6.48-.19-.16-.43-.24-.71-.39,2.64-1.7,2.72-1.96,1.7-5.34-.16-.55-.42-1.07-.57-1.62-.11-.41-.6-.87-.18-1.22.34-.28.83.01,1.27.14,1.01.29,1.95.81,3.06.79,1.74-.03,2.26-.32,2.67-2.02.25-1.05.61-.77,1.09-.23,1.17,1.31,2.35,2.62,3.5,3.94.36.42.79.66,1.3.48.59-.2.34-.76.32-1.18-.16-2.78-1.02-5.44-1.55-8.16-.14-.74-.42-1.45-.34-2.33,1.12.5,1.92,1.34,2.95,1.8.73.33,1.07.23,1.47-.45,1.11-1.9,2.24-3.78,3.01-5.84.09-.25.05-.75.52-.71.32.03.44.38.52.64.7,2.23,2.3,4.01,3.12,6.18.25.67.82.45,1.25.22.92-.48,1.81-1.03,3.02-1.73Z"/>
    </g>
    <g>
      <path class="cls-7" d="m224.07,102.16c11.55,1.72,21.48,8.38,27.58,17.77"/>
      <path class="cls-6" d="m252.42,121.16c-.49,2.47-1.17,4.89-2.42,7.12-2.07,3.68-5.1,6.47-8.37,9.04-.29.23-.5.09-.74-.05-1.46-.86-2.78-1.87-3.87-3.17-.07-.08-.15-.22-.32-.07.74,1.66,1.63,3.25,2.79,4.67.31.38.27.61.03.97-.62.91-1.24,1.83-2.04,2.59-1.79,1.7-1.37,1.67-3.65.43-.34-.19-.59-.55-1.09-.63.45.99.93,1.87,1.5,2.68.18.25.25.42.02.7-1.83,2.28-3.27,4.8-4.53,7.42-.22.45-.4.46-.78.24-.72-.41-1.48-.74-2.19-1.16-2.61-1.54-5.33-2.96-6.77-5.85-.2-.39-.37-.2-.56-.02-.7.67-1.54,1.1-2.46,1.41-1.63.55-3.33.68-5.04.7-1.11.02-2.19.15-3.27.42-1.57.39-3.08,1.06-4.74,1.04-.18,0-.36.15-.53.25-1.62.93-2.74,2.24-3.18,4.09-.06.27-.18.34-.41.21-.2-.11-.39-.22-.58-.34-1.02-.67-1.6-1.66-1.92-2.87-.08.1-.13.13-.13.17-.05,3.47.39,6.83,1.98,9.98,2.22,4.4,7.06,7.56,12.05,6.92,2.84-.36,4.93-2.1,5.5-4.75.5-2.32-.75-4.61-2.85-5.21-1.47-.42-2.74.12-3.31,1.42-.51,1.17,0,2.45,1.29,3.23.62.37,1.3.54,2.07.72-.65.68-1.37,1.06-2.21,1.15-.45.05-.49.19-.29.57.21.39.48.74.86,1.06-2.62.35-5.31-1.02-6.51-2.9-2.31-3.6-1.03-8.91,2.84-11.31,3.19-1.99,6.58-1.82,9.85-.34,4.22,1.9,6.08,5.57,6.39,9.96.38,5.44-1.73,9.92-6.09,13.18-5.6,4.19-11.79,4.55-18.15,2.1-7.31-2.82-11.95-8.27-14.49-15.59-.24-.68-.47-.73-1.07-.47-.54.23-1.08.42-1.62.59,6.88,12.04,19.85,20.15,34.71,20.15,22.07,0,39.96-17.89,39.96-39.96,0-7.5-2.07-14.52-5.67-20.52Z"/>
      <path class="cls-6" d="m184.5,147.92c.37-3.23,1.38-6.33,2.4-9.41,1.47-4.41,2.85-8.81,3.3-13.49.29-3.02,1.29-5.91,3.53-8.19.68-.69,1.11-1.56,1.18-2.54.06-.72,0-1.45.05-2.18.16-2.59,1.11-4.02,3.69-4.25,1.27-.11,2.36-.59,3.42-1.21.84-.49,1.66-1.02,2.49-1.54,1.25-.78,2.51-1.55,3.82-2.19-17.36,4.35-30.22,20.05-30.22,38.76,0,3.16.37,6.24,1.06,9.19,1.39-.31,2.74-.76,4.06-1.4.66-.32,1.11-.63,1.21-1.54Z"/>
      <path class="cls-6" d="m184.53,154.07c-.18-.42-.47-.09-.69-.03-1.14.34-2.29.6-3.45.76.22.63.45,1.25.7,1.86,1.1-.47,2.16-1.06,3.17-1.75.33-.23.41-.51.27-.84Z"/>
      <path class="cls-1" d="m183.92,152.81c.34-.12.49-.29.43-.72-.09-.6-.02-1.23-.02-1.93-1.62.73-3.24,1.23-4.88,1.55.18.69.38,1.37.59,2.05,1.29-.18,2.59-.5,3.88-.94Z"/>
      <path class="cls-1" d="m189.33,161.71c.14-.03.28-.09.53-.17-.35.64-.82,1-1.32,1.27-.55.3-.34.63-.16.98.19.38.26.87.93.65,1.33-.44,2.63-.93,3.88-1.59-.87,1.07-1.95,1.91-3.1,2.66-.23.15-.83.18-.4.7.34.42.32,1.32,1.28.96.72-.27,1.41-.6,2.25-1.05-.52.82-1.05,1.37-1.66,1.82-.38.27-.47.47-.14.88.97,1.22.95,1.23,2.3.4,1.39-.85,2.62-1.9,3.76-3.07-.73,1.55-1.75,2.88-3,4.04-1.02.94-1.03.93.02,1.86,1.46,1.3,1.55,1.29,2.85-.18.59-.68,1.09-1.43,1.57-2.2-.23,1.37-.71,2.65-1.63,3.7-.4.46-.27.63.17.86.58.3,1.15.61,1.71.95.37.22.64.15.89-.19.49-.64.88-1.33,1.3-2.04.06.8-.08,1.59-.36,2.33-.21.55-.05.77.47.87.17.03.33.11.5.16,1.52.52,1.53.52,2.12-.95.52-1.28.92-2.58,1.01-3.97.37,1.65.26,3.3-.14,4.92-.14.57-.07.78.53.79.45,0,.89.11,1.34.13,1.07.05,1.11,0,1.2-1.09.03-.42,0-.85.08-1.28.41.55.46,1.21.51,1.84.03.42.16.59.59.53.42-.06.84-.14,1.27-.14.49,0,.58-.25.58-.66,0-1.05-.04-2.1-.22-3.15.67.86,1.03,1.86,1.23,2.91.09.46.21.58.68.45,2.84-.83,5.36-2.18,7.42-4.35.44-.46.59-.79-.02-1.2-.16-.11-.38-.25-.36-.53.18-.07.27.09.39.14.93.41,1.41.19,1.75-.78.11-.32-.1-.33-.27-.42-.47-.23-.92-.52-1.3-.88-.18-.17-.42-.28-.54-.59.76.28,1.48.55,2.25.62.33.03.57-.02.7-.38.6-1.63,1.05-3.28,1.09-5.03.01-.58-.2-.75-.72-.75-.47,0-.94,0-1.58.13.62-.58,1.22-.77,1.82-.88.41-.07.49-.25.42-.61-.1-.49-.19-.98-.26-1.48-.07-.47-.33-.56-.74-.47-.81.17-1.55.52-2.32.85.53-.76,1.2-1.35,2.03-1.74.46-.22.52-.45.29-.87-.17-.3-.3-.64-.47-.94-.59-1.05-.64-1.07-1.68-.45-.3.18-.59.38-1.03.67.36-.71.72-1.22,1.16-1.66.24-.24.25-.42.02-.69-1.03-1.22-1.38-1.24-2.48-.07-.43.45-.82.94-1.16,1.47.11-.99.4-1.92.95-2.75.24-.36.17-.53-.21-.65-.02,0-.04-.03-.07-.04-1.91-.64-1.74-1.04-2.84,1.49,0-.73-.05-1.28.02-1.82.04-.35-.05-.46-.36-.46-.23,0-.45-.04-.68-.04-2.01.05-1.72-.37-1.96,1.84-.05.49,0,.98,0,1.6-.44-.87-.73-1.67-.79-2.54-.03-.46-.1-.68-.67-.47-1.08.39-1.15.45-.78,1.52.06.18.15.36.3.71-.48-.32-.66-.66-.9-.95-.09-.11-.22-.33-.29-.32-.74.14-1.13.75-1.62,1.24-.33.32,0,.53.18.75.43.52.95.93,1.7,1.34-.98-.04-1.7-.34-2.37-.74-.31-.18-.39-.13-.55.15-.88,1.48-.84,1.63.8,2.24-.32.19-.65.31-.99.25-.63-.11-.75.24-.8.75-.3,3.27,1.99,6.64,5.8,6.83-.23-.53-.6-.97-.69-1.55.7-.03,1.41.13,2.1-.33-.47-.24-.9-.42-1.29-.67-1.53-.98-2.12-2.75-1.41-4.15.84-1.65,2.8-2.35,4.64-1.66,2.69,1.02,3.95,3.87,3.07,6.81-1.15,3.81-4.42,5.36-8.01,5.17-5.71-.3-10.43-4.09-12.18-10.26-.82-2.9-.91-5.87-.79-8.85,0-.25.21-.47.09-.72-.12-.06-.18-.01-.23.09-1.98,4.26-4.87,7.73-8.94,10.17-.33.19-.44.36-.28.76.7,1.8.15,1.7,2.24,1.18Z"/>
      <path class="cls-1" d="m187.25,158.36c3.32-2.18,5.6-5.25,7.29-8.8.22-.46.16-.62-.37-.61-1.37.01-2.67.34-3.92.89-.28.12-.41.35-.55.59-2.11,3.55-4.87,5.93-8.21,7.22.42.96.87,1.9,1.36,2.81,1.5-.46,2.97-1.16,4.4-2.1Z"/>
      <path class="cls-1" d="m224.07,102.16c-.95.44-1.87,1-2.72,1.71-.54.44-1.02.94-1.54,1.41.53-.95,1.23-1.76,2.04-2.47-.01-.23-.19-.23-.33-.25-3.59-.61-7.16-.73-10.7.33-.53.16-.92.26-.34.86.23.24.35.6.5,1.03-1.16-1.25-2.4-1.56-3.78-.39,1.09.75,1.95,1.72,2.45,2.99-.92-.88-1.9-1.63-3.05-2.2-.76-.38-1.24.08-1.78.36-.29.15-.06.34.09.46.34.29.64.6.92,1.12-.8-.39-1.46-1.04-2.21-.79-.68.23-1.27.77-1.8,1.39.58.34,1.28.01,1.87.47-1.63-.03-3.17.01-4.71.28-2.85.49-3.54,2.73-2.93,5.25.43-.27.83-.56,1.26-.8.4-.23.82-.45,1.33-.46-1.43.86-2.24,2.19-2.93,3.63-.37.77-.97,1.4-1.57,2-3.12,3.11-3.93,6.97-3.64,11.18,0,.07.06.13.13.26.59-1.08,1.26-2.03,2.13-2.83.4-.37.84-.7,1.36-.97-.25.3-.51.59-.75.9-1.69,2.18-2.4,4.76-2.94,7.39-.53,2.54-.97,5.11-2.34,7.41.16-3.41,2.2-6.43,2.13-9.92-.78,1.16-1.32,2.43-1.76,3.74-.96,2.82-1.78,5.67-2.43,8.57-.15.65-.11,1,.64,1,.18,0,.36.12.55.31-.29.04-.59.09-.88.12-.44.04-.64.26-.7.71-.15,1.13-.17,1.13.99,1.34.32.06.63.1.9.36-.55.13-1.05.27-1.55.35-.5.08-.63.38-.64.84-.04,1.28-.06,1.28,1.22,1.43.15.02.29.03.62.07-.59.2-1,.35-1.42.48-.3.1-.48.26-.4.6.02.1.02.2.04.3.12.61.01,1.25.33,1.94,1.11-.92,2.03-1.98,2.78-3.19.13-.21,0-.45-.05-.66-.27-1.44.12-2.68,1.07-3.76.76-.86,1.56-1.7,2.37-2.51,1.51-1.51,2.47-3.26,2.55-5.43.31,1.9-.16,3.6-1.49,5.25,1.28-.42,2.39-.54,3.54-.34-1.35.1-2.62.42-3.72,1.29,1.59-.16,3.09.4,4.64.51,1.08.08,2.05-.33,2.99-.81-.93,1-2.11,1.39-3.43,1.42-1.13.03-2.24-.21-3.38-.14-.97.06-1.88.29-2.69.83-.93.62-1.4,1.53-1.55,2.76.99-.61,1.96-.96,3.04-1.07,1.34-.14,2.68-.04,3.96.26,3.21.74,6.79-1.78,7.48-5.17.25-1.25.12-2.5.14-3.75,0-.34-.19-.87.38-.88.54,0,.93.36.96.96.06,1.24-.19,2.43-.54,3.61-.88,2.97-2.81,5.04-5.57,6.34-.53.25-.66.57-.68,1.09-.03,1.02.26,1.89.99,2.79.31-2.03,1.54-3.19,3.16-4.03,1.97-1.02,3.03-2.63,3.14-4.85,0-.04.05-.07.18-.23.19,1.33.17,2.51-.4,3.85,1.48-.7,2.39-1.72,3.14-2.9.75-1.18,1.22-2.49,1.6-3.84.18,1.02-.05,1.99-.32,3.09,1.12-.47,1.91-1.15,2.5-2.06.62-.96.9-2.06,1.23-3.13.22-.72.46-1.42.93-2.29.16,1.15,0,2.06-.26,2.94-.51,1.75-1.67,3.05-2.99,4.24-1.02.91-2.07,1.8-3.04,2.84,2.2.16,4.55-1.64,5.84-4.38.32.97.05,2.06-1,3.99,2.07-.44,3.13-2.41,3.15-6.01.98,1.43,1.22,2.95,1.2,4.64.86-.63,1.31-1.48,1.26-2.29-.12-1.6,0-3.26-.73-4.79-.65-1.36-1.46-2.62-2.23-3.91-.56-.93-.99-1.91-1.22-2.97-.09-.42-.23-.81-.56-1.12-.14-.13-.25-.31-.35-.49-.9-1.7-1.67-3.47-2.87-5-.23-.29-.28-.71-.36-1.1.52.8.94,1.65,1.89,2.18.21-2.14-.42-3.98-1.51-5.7,1.11.99,1.77,2.22,2.13,3.65.39,1.56.35,3.18.73,4.74.12.52.25,1.04.62,1.66v-2.61c.6,2.76,1.22,5.49,2.98,7.85-.07-.59-.13-1.18-.23-1.77-.1-.62-.2-1.24-.37-1.84-.39-1.33-.61-2.68-.58-4.07.06-3.41-1.06-6.32-3.7-8.59-1.8-1.55-3.16-3.38-3.93-5.66-.48-1.41-1.39-2.58-2.59-3.51,1.13.51,1.9,1.4,2.53,2.42.56.92,1.03,1.89,1.57,2.82.31.53.65,1.04,1.3,1.37-.27-1.77-.3-3.44.27-5.08.06,1.09-.06,2.19.14,3.28.17.92.44,1.79.87,2.62,1,1.9,2.51,3.48,3.43,5.46-.33-1.51-.67-3.01-1-4.52-.37-1.69-.81-3.37-.69-5.12.18-2.61,1.36-4.59,3.77-5.79.07.27-.14.3-.24.4-.12.13-.27.23-.39.35-1.52,1.55-2.31,3.42-2.42,5.59-.12,2.46.32,4.83,1.02,7.17.04.13,0,.32.27.35.19-.94,0-1.86-.14-2.78-.35-2.28.49-3.91,2.52-4.83.13-.06.27-.09.45-.09-1.6.94-2.36,2.33-2.39,4.13-.02.93.08,1.86.29,2.76.63,2.72.59,5.45.34,8.21-.29,3.05.01,6.05,1.04,8.95,0,.02.01.03.02.04,1.48-4.61,1.7-9.42,1.54-14.27.63.71.7,1.32.63,3.69-.04,1.25-.27,2.48-.17,3.92,1.12-1.73,2.01-3.39,2.51-5.24.5-1.86.47-3.76.27-5.67.54,1.4.73,2.85.63,4.34-.13,1.95-.96,3.66-1.79,5.37-1.05,2.16-2.11,4.32-2.42,6.74-.39,3.08-.12,6.09,1.22,8.94.77,1.64,2.16,2.66,3.66,3.56,1.29.77,2.67,1.37,4.04,1.99.44.2.69.13.93-.33.53-.99.56-.97-.36-1.55-1.06-.66-2.07-1.4-3.21-2.32,1.2.44,2.2.83,3.22,1.17,1.63.54,1.64.53,2.7-.85.03-.04.06-.09.09-.12,1.39-.99,1.38-2.16.57-3.55-.43-.74-.61-1.62-.97-2.63,1.03.63,1.89,1.2,2.83,1.6,1.01.43,1.65.25,2.34-.59.27-.32.02-.44-.13-.61-.77-.83-1.44-1.73-2.1-2.86.93.69,1.71,1.31,2.53,1.88.23.16.52.71.84.19.27-.45.92-.83.43-1.56-1.42-2.12-2.31-4.49-3.03-6.92-.02-.06,0-.14.03-.31,1.33,1.76,2.93,3.1,4.68,4.29.69.47,1.18.47,1.81-.08.77-.69.81-.64.05-1.33-.85-.78-1.65-1.6-2.31-2.6.8.53,1.58,1.07,2.39,1.58,1.55.99,1.57,1,2.91-.31.74-.71,1.41-1.5,2.15-2.21.35-.33.29-.56.01-.87-.57-.66-1.12-1.34-1.82-2.17.96.4,1.68.85,2.33,1.41.38.32.61.3.87-.13.89-1.46,1-.97-.2-2.24-.67-.71-1.46-1.27-2.38-2.01,1.37.35,2.45.85,3.45,1.52.39.26.58.24.76-.23.55-1.5.63-1.09-.48-2.11-1.14-1.05-2.5-1.8-3.87-2.54,1.61.25,3.17.67,4.62,1.4.58.29.82.18.93-.43.15-.79.3-1.58.45-2.37-6.1-9.38-16.04-16.05-27.58-17.77Zm-21.49,13.33c-1.29,1.54-3.47,1.68-4.86,3.06.82-1.7,3.5-3.36,4.86-3.06Zm-3.72,16.46c-.65-.03-1.16-.25-1.5-.62-.55-.57-.93-.31-1.36.08-.9.81-1.34,1.87-1.62,3.03-.09-1.79.51-3.3,1.96-4.51-.87-.21-1.53.11-2.25.44.23-1,.86-1.59,1.59-2.09-.81-1.04-.8-1.77.05-2.84.23-.3.48-.48-.03-.77-.4-.23-.48-.69-.41-1.14.13-.82.39-1.59.86-2.29-.14.71-.28,1.43-.14,2.14.12.6.42,1.2,1.13,1.04,1.38-.31,2.8.33,4.16-.26-.37.35-.83.46-1.28.56-.83.18-1.68.25-2.5.48-1.06.3-1.48,1.06-1.22,2.08.66-1.01,1.61-1.45,2.81-1.6q-1.75,1.4-1.81,2.06c1.47-1.42,3.09-1.68,4.88-.72.79.43,1.54.5,2.24-.18-.65,2.03-2.12.9-3.41.78.43.69.43,1.29-.04,1.81-.36.4-.86.45-1.38.32-.48-.12-.72-.41-.85-.94.14.06.19.07.22.1.39.28.77.39,1.12-.04.21-.26.12-.52-.1-.74-.42-.41-.77-.18-1.1.14-.4.38-.76.79-1.36,1.12,1.65.91,3.2.84,4.79.1-.56.66-1.16,1.18-2.04,1.31-.87.13-1.65-.11-2.5-.49.18.72.61,1.15,1.1,1.64Zm4.87,4.33c-.31.25-.6.53-.91.79-.66.55-.98,1.25-1.02,2.1-.04.72.07,1.42.18,2.27-1.38-2.38-1.06-4.35,1.08-6.07-1.41-.29-2.41-.89-2.97-2.08.79.67,1.65,1.19,2.72,1.22,1.19.04,1.71-.45,1.75-1.63.02-.46,0-.92,0-1.39.99,2.16.45,3.74-.84,4.79Zm3.41-3.03c.29.85.17,1.66,0,2.64.96-.87,1.34-1.83,1.5-2.91.24-1.72-.15-3.38-.38-5.06-.1-.75-.25-1.52-.05-2.39.88,1.19,1.2,2.46,1.28,3.79.14,2.35-.41,4.56-1.54,6.63-.12.23-.41.45-.15.73.32.35.67.7,1.19.71.53.01.82-.37,1.01-.78.2-.43.33-.89.44-1.34.14-.59.21-1.2.32-1.8.16,1.16.2,2.31.28,3.46.02.28.04.65.37.76.36.13.62-.14.82-.4.5-.62.72-1.37.92-2.12.28-1.06.31-2.15.37-3.24.21,1.38.1,2.75-.17,4.1-.18.89-.45,1.75-1.02,2.47-.33.42-.81.73-1.3.35-.59-.47-.69-.11-.91.33-.46.93-1.06,1.75-2.04,2.22.59-.97.87-1.97.68-3.1-.69,1.73-1.65,3.24-3.19,4.32.06-.17.17-.29.27-.42.75-.96,1.32-1.99,1.48-3.23.22-1.59-.77-2.3-2.11-2.9,1.46-.43,1.75-1.58,1.92-2.81Zm-1.24-8.88c.01-1.3-.44-1.5-2.49-1.1,2-1.91,2.17-2.69.86-4.56,1.42.83,1.93,1.82,1.46,2.87-.2.44-.09.64.2.94.6.62.57,1.19-.03,1.85Z"/>
      <path d="m251.66,119.93c.26.41.52.82.77,1.23"/>
      <path d="m223.83,101.43c-.27.15-.51.1-.79.05-3.66-.54-7.32-.77-10.97.08-1.29.3-2.51.78-3.67,1.35,3.12-.78,6.38-1.2,9.74-1.2,2.02,0,4,.15,5.94.44"/>
      <path d="m186.11,161.36c2.54,7.32,7.17,12.77,14.49,15.59,6.36,2.46,12.55,2.09,18.15-2.1,4.35-3.26,6.47-7.75,6.09-13.18-.31-4.4-2.17-8.06-6.39-9.96-3.27-1.48-6.66-1.65-9.85.34-3.86,2.4-5.14,7.71-2.84,11.31,1.2,1.88,3.89,3.24,6.51,2.9-.38-.33-.65-.67-.86-1.06-.2-.37-.15-.52.29-.57.84-.09,1.56-.47,2.21-1.15-.76-.17-1.45-.34-2.07-.72-1.29-.78-1.81-2.06-1.29-3.23.57-1.3,1.84-1.84,3.31-1.42,2.1.61,3.35,2.89,2.85,5.21-.57,2.65-2.66,4.39-5.5,4.75-4.99.64-9.83-2.52-12.05-6.92-1.59-3.15-2.03-6.51-1.98-9.98,0-.03.05-.07.13-.17.32,1.2.89,2.19,1.92,2.87.19.12.38.24.58.34.23.13.35.07.41-.21.43-1.84,1.56-3.16,3.18-4.09.17-.1.36-.26.53-.25,1.66.02,3.17-.65,4.74-1.04,1.08-.27,2.16-.4,3.27-.42,1.71-.02,3.4-.15,5.04-.7.91-.31,1.75-.74,2.46-1.41.19-.18.36-.37.56.02,1.45,2.89,4.17,4.3,6.77,5.85.71.42,1.47.75,2.19,1.16.38.22.56.21.78-.24,1.26-2.62,2.7-5.15,4.53-7.42.23-.28.16-.45-.02-.7-.58-.82-1.06-1.69-1.5-2.68.49.07.74.44,1.09.63,2.28,1.25,1.86,1.27,3.65-.43.8-.76,1.42-1.68,2.04-2.59.24-.36.28-.6-.03-.97-1.16-1.42-2.05-3-2.79-4.67.17-.15.25-.02.32.07,1.09,1.3,2.42,2.32,3.87,3.17.24.14.45.28.74.05,3.26-2.58,6.3-5.37,8.37-9.04,1.25-2.23,1.94-4.65,2.42-7.12-.25-.42-.51-.83-.77-1.23-.15.79-.3,1.58-.45,2.37-.11.62-.35.72-.93.43-1.45-.73-3.01-1.15-4.62-1.4,1.37.74,2.73,1.48,3.87,2.54,1.11,1.02,1.03.61.48,2.11-.17.47-.37.49-.76.23-1-.66-2.08-1.17-3.45-1.52.92.74,1.71,1.3,2.38,2.01,1.2,1.27,1.09.77.2,2.24-.26.43-.49.45-.87.13-.65-.55-1.37-1-2.33-1.41.69.83,1.24,1.51,1.82,2.17.28.32.34.54-.01.87-.74.71-1.41,1.49-2.15,2.21-1.35,1.31-1.36,1.3-2.91.31-.8-.51-1.59-1.05-2.39-1.58.66,1,1.46,1.82,2.31,2.6.76.69.72.65-.05,1.33-.63.56-1.11.56-1.81.08-1.75-1.19-3.35-2.53-4.68-4.29-.02.18-.04.25-.03.31.72,2.43,1.61,4.8,3.03,6.92.49.73-.16,1.11-.43,1.56-.31.52-.61-.04-.84-.19-.82-.56-1.61-1.18-2.53-1.88.65,1.13,1.33,2.03,2.1,2.86.15.16.4.28.13.61-.7.84-1.34,1.01-2.34.59-.95-.4-1.81-.97-2.83-1.6.36,1,.55,1.89.97,2.63.81,1.39.82,2.56-.57,3.55-.04.03-.06.08-.09.12-1.06,1.38-1.07,1.4-2.7.85-1.02-.34-2.02-.73-3.22-1.17,1.14.92,2.15,1.65,3.21,2.32.93.58.9.56.36,1.55-.25.46-.49.52-.93.33-1.37-.62-2.74-1.22-4.04-1.99-1.5-.89-2.89-1.91-3.66-3.56-1.34-2.85-1.61-5.85-1.22-8.94.31-2.42,1.37-4.58,2.42-6.74.83-1.71,1.66-3.42,1.79-5.37.1-1.5-.09-2.94-.63-4.34.2,1.91.24,3.8-.27,5.67-.5,1.85-1.39,3.52-2.51,5.24-.1-1.43.14-2.67.17-3.92.07-2.37,0-2.98-.63-3.69.16,4.85-.06,9.66-1.54,14.27.02.05.03.08,0,0h0s-.01-.03-.02-.05c-1.03-2.9-1.33-5.9-1.04-8.95.26-2.75.3-5.49-.34-8.21-.21-.9-.31-1.83-.29-2.76.04-1.8.8-3.2,2.39-4.13-.18,0-.32.03-.45.09-2.03.92-2.87,2.55-2.52,4.83.14.92.34,1.84.14,2.78-.27-.03-.23-.22-.27-.35-.7-2.34-1.14-4.71-1.02-7.17.11-2.17.89-4.03,2.42-5.59.12-.12.27-.22.39-.35.1-.1.31-.13.24-.4-2.41,1.2-3.59,3.18-3.77,5.79-.12,1.74.33,3.43.69,5.12.33,1.51.67,3.01,1,4.52-.92-1.98-2.43-3.56-3.43-5.46-.43-.82-.7-1.7-.87-2.62-.21-1.09-.08-2.19-.14-3.28-.57,1.64-.55,3.31-.27,5.08-.65-.32-.99-.84-1.3-1.37-.54-.93-1.01-1.9-1.57-2.82-.62-1.02-1.4-1.91-2.53-2.42,1.2.93,2.11,2.1,2.59,3.51.77,2.29,2.14,4.12,3.93,5.66,2.63,2.26,3.76,5.17,3.7,8.59-.03,1.39.19,2.74.58,4.07.17.6.27,1.22.37,1.84.1.59.15,1.18.23,1.77-1.76-2.36-2.38-5.09-2.98-7.85v2.61c-.37-.62-.49-1.14-.62-1.66-.38-1.56-.34-3.18-.73-4.74-.36-1.43-1.02-2.66-2.13-3.65,1.1,1.72,1.72,3.55,1.51,5.7-.96-.53-1.38-1.38-1.89-2.18.08.39.14.81.36,1.1,1.2,1.53,1.97,3.31,2.87,5,.09.18.2.35.35.49.33.31.46.7.56,1.12.23,1.06.66,2.04,1.22,2.97.77,1.29,1.58,2.55,2.23,3.91.73,1.53.61,3.18.73,4.79.06.81-.4,1.66-1.26,2.29.02-1.69-.22-3.21-1.2-4.64-.02,3.6-1.08,5.56-3.15,6.01,1.04-1.93,1.32-3.02,1-3.99-1.29,2.75-3.64,4.54-5.84,4.38.97-1.04,2.02-1.92,3.04-2.84,1.32-1.18,2.48-2.49,2.99-4.24.26-.89.42-1.8.26-2.94-.47.87-.71,1.57-.93,2.29-.33,1.07-.61,2.17-1.23,3.13-.59.91-1.37,1.6-2.5,2.06.27-1.09.5-2.07.32-3.09-.38,1.35-.85,2.65-1.6,3.84-.75,1.18-1.66,2.19-3.14,2.9.58-1.34.59-2.52.4-3.85-.12.16-.18.19-.18.23-.11,2.22-1.18,3.83-3.14,4.85-1.62.84-2.85,2-3.16,4.03-.73-.9-1.02-1.78-.99-2.79.02-.53.15-.84.68-1.09,2.76-1.3,4.69-3.37,5.57-6.34.35-1.18.6-2.37.54-3.61-.03-.6-.42-.96-.96-.96-.58,0-.38.54-.38.88-.02,1.25.11,2.5-.14,3.75-.69,3.39-4.27,5.91-7.48,5.17-1.28-.3-2.62-.39-3.96-.26-1.07.11-2.05.46-3.04,1.07.15-1.23.62-2.13,1.55-2.76.81-.54,1.72-.78,2.69-.83,1.13-.07,2.25.17,3.38.14,1.32-.03,2.51-.42,3.43-1.42-.94.48-1.9.89-2.99.81-1.55-.11-3.05-.67-4.64-.51,1.11-.86,2.37-1.19,3.72-1.29-1.14-.2-2.26-.08-3.54.34,1.34-1.65,1.8-3.36,1.49-5.25-.09,2.17-1.04,3.92-2.55,5.43-.82.81-1.61,1.65-2.37,2.51-.95,1.07-1.34,2.32-1.07,3.76.04.21.18.45.05.66-.74,1.21-1.67,2.26-2.78,3.19-.32-.69-.21-1.33-.33-1.94-.02-.1-.01-.2-.04-.3-.08-.35.1-.51.4-.6.42-.13.83-.28,1.42-.48-.33-.04-.48-.06-.62-.07-1.28-.15-1.26-.15-1.22-1.43.02-.47.14-.76.64-.84.5-.08,1-.23,1.55-.35-.27-.26-.58-.31-.9-.36-1.16-.21-1.14-.21-.99-1.34.06-.46.26-.67.7-.71.3-.03.59-.08.88-.12-.19-.19-.37-.31-.55-.31-.76,0-.79-.35-.64-1,.65-2.9,1.47-5.76,2.43-8.57.45-1.31.98-2.58,1.76-3.74.06,3.49-1.97,6.5-2.13,9.92,1.37-2.3,1.82-4.86,2.34-7.41.55-2.63,1.26-5.21,2.94-7.39.24-.31.5-.6.75-.9-.52.27-.96.6-1.36.97-.87.8-1.54,1.75-2.13,2.83-.07-.14-.13-.2-.13-.26-.29-4.22.52-8.07,3.64-11.18.6-.6,1.2-1.23,1.57-2,.69-1.44,1.5-2.77,2.93-3.63-.51,0-.93.23-1.33.46-.43.25-.83.53-1.26.8-.61-2.51.08-4.76,2.93-5.25,1.54-.27,3.08-.31,4.71-.28-.59-.46-1.28-.13-1.87-.47.53-.61,1.12-1.15,1.8-1.39.75-.26,1.41.4,2.21.79-.29-.52-.59-.83-.92-1.12-.15-.13-.38-.31-.09-.46.55-.28,1.02-.74,1.78-.36,1.14.57,2.13,1.32,3.05,2.2-.5-1.27-1.36-2.24-2.45-2.99,1.38-1.17,2.62-.87,3.78.39-.15-.42-.27-.78-.5-1.03-.58-.6-.19-.7.34-.86,3.54-1.06,7.11-.94,10.7-.33.14.02.31.02.33.25-.81.7-1.52,1.51-2.04,2.47.52-.47,1.01-.97,1.54-1.41.85-.71,1.76-1.26,2.72-1.71-1.94-.29-3.92-.44-5.94-.44-3.36,0-6.62.42-9.74,1.2-1.31.64-2.57,1.41-3.82,2.19-.83.52-1.65,1.05-2.49,1.54-1.06.62-2.15,1.1-3.42,1.21-2.58.22-3.54,1.65-3.69,4.25-.04.72,0,1.46-.05,2.18-.08.98-.51,1.85-1.18,2.54-2.24,2.28-3.24,5.17-3.53,8.19-.45,4.68-1.83,9.08-3.3,13.49-1.03,3.07-2.04,6.17-2.4,9.41-.1.92-.55,1.23-1.21,1.54-1.31.63-2.67,1.09-4.06,1.4.07.28.13.56.2.83,1.64-.32,3.26-.82,4.88-1.55,0,.71-.07,1.33.02,1.93.06.43-.08.6-.43.72-1.3.45-2.59.77-3.88.94.11.35.23.7.35,1.05,1.16-.15,2.31-.42,3.45-.76.22-.07.51-.39.69.03.14.32.06.61-.27.84-1.01.69-2.07,1.28-3.17,1.75.13.33.27.66.41.98,3.34-1.29,6.1-3.67,8.21-7.22.14-.24.27-.46.55-.59,1.25-.55,2.55-.88,3.92-.89.53,0,.59.15.37.61-1.69,3.55-3.97,6.62-7.29,8.8-1.43.94-2.9,1.63-4.4,2.1.18.34.37.69.56,1.03.54-.17,1.08-.37,1.62-.59.61-.26.84-.21,1.07.47Zm1.26-1.6c4.06-2.43,6.95-5.9,8.94-10.17.05-.1.11-.15.23-.09.12.25-.08.48-.09.72-.12,2.99-.04,5.95.79,8.85,1.75,6.16,6.46,9.95,12.18,10.26,3.6.19,6.87-1.37,8.01-5.17.89-2.94-.37-5.79-3.07-6.81-1.84-.7-3.8,0-4.64,1.66-.71,1.4-.12,3.16,1.41,4.15.39.25.82.43,1.29.67-.68.46-1.4.3-2.1.33.08.58.46,1.02.69,1.55-3.81-.19-6.1-3.57-5.8-6.83.05-.51.16-.86.8-.75.34.06.66-.06.99-.25-1.64-.61-1.69-.77-.8-2.24.17-.28.25-.33.55-.15.67.4,1.39.7,2.37.74-.74-.41-1.26-.83-1.7-1.34-.18-.22-.51-.43-.18-.75.48-.48.88-1.09,1.62-1.24.07-.01.19.2.29.32.24.29.42.63.9.95-.15-.35-.23-.53-.3-.71-.37-1.07-.31-1.13.78-1.52.56-.2.63.01.67.47.06.87.35,1.67.79,2.54,0-.62-.05-1.11,0-1.6.24-2.21-.05-1.8,1.96-1.84.22,0,.45.03.68.04.32,0,.41.11.36.46-.07.54-.02,1.08-.02,1.82,1.1-2.53.93-2.13,2.84-1.49.02,0,.04.03.07.04.37.12.45.29.21.65-.55.83-.84,1.76-.95,2.75.34-.53.73-1.01,1.16-1.47,1.1-1.16,1.45-1.14,2.48.07.23.27.23.45-.02.69-.45.44-.81.95-1.16,1.66.45-.29.73-.49,1.03-.67,1.05-.62,1.1-.61,1.68.45.17.31.29.64.47.94.24.41.17.65-.29.87-.83.39-1.5.99-2.03,1.74.76-.33,1.51-.68,2.32-.85.41-.09.68,0,.74.47.07.5.16.99.26,1.48.07.36,0,.53-.42.61-.61.11-1.2.3-1.82.88.63-.13,1.1-.14,1.58-.13.52,0,.74.17.72.75-.04,1.75-.49,3.4-1.09,5.03-.13.36-.37.41-.7.38-.77-.07-1.48-.34-2.25-.62.12.32.36.43.54.59.39.36.83.64,1.3.88.17.08.38.1.27.42-.35.97-.82,1.2-1.75.78-.12-.06-.22-.21-.39-.14-.02.28.2.42.36.53.61.41.47.74.02,1.2-2.06,2.16-4.58,3.52-7.42,4.35-.46.14-.59.01-.68-.45-.2-1.05-.56-2.05-1.23-2.91.18,1.05.22,2.1.22,3.15,0,.41-.1.66-.58.66-.42,0-.85.08-1.27.14-.43.06-.55-.11-.59-.53-.05-.63-.1-1.29-.51-1.84-.07.44-.04.86-.08,1.28-.09,1.1-.13,1.14-1.2,1.09-.45-.02-.9-.12-1.34-.13-.6,0-.67-.22-.53-.79.41-1.62.51-3.27.14-4.92-.09,1.39-.5,2.7-1.01,3.97-.59,1.47-.6,1.46-2.12.95-.17-.06-.33-.13-.5-.16-.52-.1-.68-.32-.47-.87.28-.74.42-1.53.36-2.33-.42.7-.81,1.4-1.3,2.04-.26.34-.52.41-.89.19-.56-.33-1.13-.65-1.71-.95-.44-.23-.57-.4-.17-.86.92-1.05,1.4-2.33,1.63-3.7-.48.77-.97,1.52-1.57,2.2-1.29,1.48-1.38,1.49-2.85.18-1.05-.93-1.04-.92-.02-1.86,1.25-1.16,2.27-2.49,3-4.04-1.14,1.17-2.37,2.22-3.76,3.07-1.35.83-1.33.81-2.3-.4-.33-.41-.24-.61.14-.88.62-.45,1.15-.99,1.66-1.82-.85.46-1.54.78-2.25,1.05-.96.36-.94-.54-1.28-.96-.42-.53.17-.55.4-.7,1.14-.76,2.22-1.59,3.1-2.66-1.25.66-2.55,1.15-3.88,1.59-.67.22-.74-.27-.93-.65-.18-.36-.39-.69.16-.98.5-.27.97-.63,1.32-1.27-.26.08-.39.13-.53.17-2.09.52-1.54.61-2.24-1.18-.16-.41-.04-.57.28-.76Z"/>
      <path d="m218.5,137.35h0c.03.08.02.05,0,0Z"/>
      <path d="m200.26,130.79c.88-.13,1.47-.65,2.04-1.31-1.59.74-3.14.81-4.79-.1.6-.34.96-.75,1.36-1.12.33-.32.68-.55,1.1-.14.22.22.31.47.1.74-.35.43-.73.32-1.12.04-.04-.03-.09-.04-.22-.1.13.52.38.82.85.94.52.13,1.02.09,1.38-.32.47-.52.47-1.12.04-1.81,1.29.13,2.76,1.25,3.41-.78-.7.68-1.45.61-2.24.18-1.79-.96-3.41-.7-4.88.72q.06-.66,1.81-2.06c-1.2.15-2.14.59-2.81,1.6-.27-1.02.16-1.78,1.22-2.08.81-.23,1.67-.3,2.5-.48.45-.1.91-.2,1.28-.56-1.36.59-2.78-.06-4.16.26-.71.16-1.01-.43-1.13-1.04-.14-.72,0-1.43.14-2.14-.47.7-.73,1.48-.86,2.29-.07.44.02.91.41,1.14.51.29.27.48.03.77-.85,1.07-.85,1.8-.05,2.84-.73.5-1.36,1.08-1.59,2.09.72-.33,1.38-.66,2.25-.44-1.44,1.22-2.04,2.72-1.96,4.51.28-1.15.72-2.21,1.62-3.03.43-.39.82-.66,1.36-.08.35.37.86.59,1.5.62-.49-.49-.92-.92-1.1-1.64.85.37,1.63.62,2.5.49Z"/>
      <path d="m205.23,136.06c1.34.6,2.33,1.32,2.11,2.9-.17,1.24-.74,2.27-1.48,3.23-.1.13-.22.26-.27.42,1.54-1.07,2.5-2.59,3.19-4.32.19,1.13-.09,2.14-.68,3.1.97-.47,1.57-1.29,2.04-2.22.22-.44.32-.8.91-.33.48.38.96.07,1.3-.35.57-.72.85-1.58,1.02-2.47.27-1.36.38-2.72.17-4.1-.06,1.09-.08,2.18-.37,3.24-.2.75-.42,1.5-.92,2.12-.21.26-.46.52-.82.4-.33-.11-.35-.48-.37-.76-.08-1.15-.12-2.3-.28-3.46-.1.6-.18,1.21-.32,1.8-.11.46-.24.92-.44,1.34-.19.41-.48.79-1.01.78-.52-.01-.87-.36-1.19-.71-.26-.28.03-.51.15-.73,1.13-2.07,1.68-4.27,1.54-6.63-.08-1.33-.41-2.6-1.28-3.79-.2.87-.06,1.64.05,2.39.23,1.68.62,3.35.38,5.06-.15,1.08-.54,2.05-1.5,2.91.17-.97.28-1.79,0-2.64-.17,1.24-.46,2.38-1.92,2.81Z"/>
      <path d="m204.58,132.88c-.05,1.18-.56,1.67-1.75,1.63-1.07-.03-1.93-.55-2.72-1.22.56,1.19,1.55,1.79,2.97,2.08-2.14,1.72-2.47,3.69-1.08,6.07-.11-.85-.22-1.56-.18-2.27.05-.84.36-1.55,1.02-2.1.31-.26.6-.54.91-.79,1.3-1.05,1.84-2.63.84-4.79,0,.47.01.93,0,1.39Z"/>
      <path d="m205.73,121.58c.47-1.05-.04-2.05-1.46-2.87,1.31,1.87,1.14,2.66-.86,4.56,2.05-.4,2.5-.2,2.49,1.1.59-.66.63-1.23.03-1.85-.3-.3-.4-.5-.2-.94Z"/>
      <path d="m202.59,115.49c-1.37-.3-4.04,1.36-4.86,3.06,1.4-1.39,3.57-1.53,4.86-3.06Z"/>
    </g>
  </g>
</svg>